PathFileType	4	(X/Y/Z)	C:\Users\chris\Documents\GitHub\baseballds\vids\pitch5_Sports2D\pitch5_Sports2D_px_person05.trc
DataRate	CameraRate	NumFrames	NumMarkers	Units	OrigDataRate	OrigDataStartFrame	OrigNumFrames
30	30	13	22	m	30	74	149
Frame#	Time	Hip			RHip			RKnee			RAnkle			RBigToe			RSmallToe			RHeel			LHip			LKnee			LAnkle			LBigToe			LSmallToe			LHeel			Neck			Head			Nose			RShoulder			RElbow			RWrist			LShoulder			LElbow			LWrist		
		X1	Y1	Z1	X2	Y2	Z2	X3	Y3	Z3	X4	Y4	Z4	X5	Y5	Z5	X6	Y6	Z6	X7	Y7	Z7	X8	Y8	Z8	X9	Y9	Z9	X10	Y10	Z10	X11	Y11	Z11	X12	Y12	Z12	X13	Y13	Z13	X14	Y14	Z14	X15	Y15	Z15	X16	Y16	Z16	X17	Y17	Z17	X18	Y18	Z18	X19	Y19	Z19	X20	Y20	Z20	X21	Y21	Z21	X22	Y22	Z22
74	2.466666666666667	1405.2283925983181	479.23682972813646	0.0	1407.1840553761194	480.80128294738915	0.0	1411.8773866095858	493.83746699693444	0.0	1396.4943489266318	489.6658258298181	0.0	1393.7565685233772	493.70718629241304	0.0	1392.7137024677609	494.0976732872798	0.0	1394.67083415741	488.7546212357473	0.0	1403.663800866742	480.2797973960749	0.0	1404.7068357308274	492.66422526450543	0.0	1393.8869030238532	490.05691011254294	0.0	1391.801186870146	493.967970043639	0.0	1390.4972904512883	493.3161863659218	0.0	1392.974371062311	489.27477871594465	0.0	1410.3128207123432	462.02889591900106	0.0	1413.1808656848857	455.5109677341664	0.0	1414.6148917052578	458.24837930709305	0.0	1408.7485002324154	464.2450999624719	0.0	1405.2289125846594	473.370527849076	0.0	1409.40006355184	479.237085978825	0.0	1408.748220348778	464.11470929941595	0.0	1405.0980076685441	471.41493852652013	0.0	1410.3122551806503	476.49919231389913	0.0
75	2.5	1405.222382312815	479.23336629147593	0.0	1407.179046068116	480.79819971769075	0.0	1411.8736842609892	493.83385601655044	0.0	1396.4903390317152	489.66204394394697	0.0	1393.7522679498898	493.70390096413206	0.0	1392.709141180369	494.09386506267043	0.0	1394.669325971293	488.7533466138014	0.0	1403.6567591852017	480.27652411768906	0.0	1404.7009373570243	492.660681739323	0.0	1393.8819625833407	490.0532825356602	0.0	1391.7966775370517	493.96471837447837	0.0	1390.4919202125589	493.3130247792033	0.0	1392.969681547769	489.27130940176136	0.0	1410.3082654071545	462.02591898592897	0.0	1413.1763635570683	455.50917011548	0.0	1414.6106113162646	458.24557221438664	0.0	1408.7439892473099	464.2422598425349	0.0	1405.2253965253256	473.36755922539743	0.0	1409.3944934239532	479.2348409800735	0.0	1408.742642683629	464.11172457611747	0.0	1405.0917869970517	471.4117097946763	0.0	1410.305011885569	476.49659505079757	0.0
76	2.533333333333333	1405.2223696657572	479.23318336229374	0.0	1407.1790368969828	480.7979714009045	0.0	1411.8738064316349	493.8338784879081	0.0	1396.490776828454	489.6619475006061	0.0	1393.753063844617	493.70386276626704	0.0	1392.7095273013201	494.0959101803275	0.0	1394.6653376412069	488.7498190669749	0.0	1403.6567987279532	480.2762595951142	0.0	1404.7014573133122	492.66063675745323	0.0	1393.8823133974433	490.05334977881	0.0	1391.7969864784914	493.96447093570043	0.0	1390.492566674529	493.3127135984721	0.0	1392.970200744996	489.2713066079253	0.0	1410.308489050707	462.0259396065189	0.0	1413.176436058357	455.5091860851707	0.0	1414.6107664547117	458.24563305950716	0.0	1408.7440747607322	464.24230144487854	0.0	1405.225402352432	473.3675721336676	0.0	1409.3947128596099	479.23465764194896	0.0	1408.7429629576743	464.1117523318086	0.0	1405.09167795351	471.4120665047334	0.0	1410.3052373524808	476.49719310983505	0.0
77	2.5666666666666664	1405.2530393806012	479.2505253787924	0.0	1407.2046013368895	480.81328610856735	0.0	1411.8929442931674	493.8523616020402	0.0	1396.5120809043156	489.6810789960594	0.0	1393.7765281433512	493.72056833641636	0.0	1392.7335497333847	494.1192175621082	0.0	1394.6655132602095	488.74967146298076	0.0	1403.692834108228	480.29247652688866	0.0	1404.7325605981498	492.67864809628924	0.0	1393.9082054765772	490.07200213830674	0.0	1391.820597941288	493.98060975170836	0.0	1390.5212115879012	493.328272089043	0.0	1392.9951291435677	489.28901857668086	0.0	1410.3321743185606	462.04118124828557	0.0	1413.1995645344477	455.518396377337	0.0	1414.6329184916344	458.26008326171944	0.0	1408.7672730250317	464.2568839985623	0.0	1405.2433693100436	473.38275678661205	0.0	1409.4235727263324	479.24577651625	0.0	1408.7720516099573	464.12704722181286	0.0	1405.1232401649113	471.42922828368387	0.0	1410.3426532022017	476.5115855314182	0.0
78	2.6	1405.3109813414078	479.2841860026898	0.0	1407.252891289912	480.8433527485933	0.0	1411.9284357919873	493.88712666374283	0.0	1396.550048452683	489.7176749085288	0.0	1393.8167435374016	493.7522887908436	0.0	1392.776911041075	494.15275725060536	0.0	1394.6862124475251	488.7674075428001	0.0	1403.7606351883016	480.3244306676331	0.0	1404.7886008353528	492.712867335295	0.0	1393.9552753356234	490.1068579435116	0.0	1391.8635778450393	494.0123292345149	0.0	1390.5719665432007	493.3592219493236	0.0	1393.0395205174823	489.32245742134324	0.0	1410.3757291040447	462.0698387203678	0.0	1413.242840447848	455.5356957317771	0.0	1414.6739297340473	458.28704177354433	0.0	1408.8106141861065	464.2841905430764	0.0	1405.2772453229998	473.4113460996577	0.0	1409.4769140801116	479.2676954242162	0.0	1408.8253097433424	464.15576874177066	0.0	1405.1833586537932	471.4597929254487	0.0	1410.412109905765	476.5356915375189	0.0
79	2.6333333333333333	1405.2636992622367	479.2591446290262	0.0	1407.2134665669955	480.8218822497695	0.0	1411.8976783978355	493.85834208879095	0.0	1396.51290114111	489.6890341839384	0.0	1393.772806258185	493.72683631949263	0.0	1392.736060173458	494.0970234767158	0.0	1394.724377400164	488.80163141055493	0.0	1403.704556823472	480.3019145891742	0.0	1404.735515805469	492.6854620105717	0.0	1393.9118749493482	490.07738030284855	0.0	1391.8241059784573	493.989769253727	0.0	1390.5214620779632	493.3381732305251	0.0	1392.9959868782425	489.29510823616715	0.0	1410.3369651963912	462.0460820912211	0.0	1413.2063937234639	455.5213061455075	0.0	1414.6381958290547	458.2641207628681	0.0	1408.7739341944	464.2612504130739	0.0	1405.2494189381048	473.3877518792973	0.0	1409.4301927213799	479.2522766527351	0.0	1408.777262966078	464.1318610481684	0.0	1405.1356261008345	471.4298295126056	0.0	1410.3521060579926	476.50768258820676	0.0
80	2.6666666666666665	1404.878571927481	479.0399890952308	0.0	1406.8924582749041	480.6278192880625	0.0	1411.6583860684332	493.6264825021577	0.0	1396.2489054878113	489.44809619345307	0.0	1393.4845177401621	493.5168131356794	0.0	1392.4375303932343	493.82056535668914	0.0	1394.6906916842888	488.77564052526833	0.0	1403.2524808896537	480.09623932634963	0.0	1404.3491494202278	492.45899266255645	0.0	1393.589594938686	489.8437494065885	0.0	1391.5301263058986	493.78520950314896	0.0	1390.1669566251476	493.1403957508245	0.0	1392.6871340051564	489.0727301810939	0.0	1410.0413856954926	461.85490133030186	0.0	1412.916611176877	455.4058062185165	0.0	1414.3613237748573	458.0831932351139	0.0	1408.4833782352305	464.07850945676984	0.0	1405.0239078011862	473.1972256804033	0.0	1409.0696181077287	479.11124319949977	0.0	1408.4146121245572	463.94006812836756	0.0	1404.7385334827982	471.21719620261956	0.0	1409.8841672658557	476.3317208167273	0.0
81	2.7	1404.3932532903893	478.75429906957834	0.0	1406.488013563628	480.3712460142665	0.0	1411.363886347392	493.33593436769587	0.0	1395.9404199786388	489.1396814175454	0.0	1393.1648640212652	493.25045634418854	0.0	1392.082788385107	493.5834798362189	0.0	1394.432220358399	488.5518167532358	0.0	1402.6857435841903	479.8230918793281	0.0	1403.8911273037436	492.1715729313417	0.0	1393.2030534308005	489.5533979790699	0.0	1391.176928547275	493.514391361767	0.0	1389.755881314049	492.87465877870585	0.0	1392.326611593641	488.79274450705395	0.0	1409.6815534371053	461.6154420172577	0.0	1412.5558849659906	455.2613295651781	0.0	1414.0213209316025	457.8588156121464	0.0	1408.1223837629261	463.85080731933425	0.0	1404.7404466154564	472.958172207121	0.0	1408.6277698442948	478.9238376531624	0.0	1407.97561447758	463.70022506159137	0.0	1404.2329354416247	470.9689504624072	0.0	1409.3075416962547	476.1426974635207	0.0
82	2.7333333333333334	1405.4441843358113	479.33436103876403	0.0	1407.3641174080199	480.87811092003244	0.0	1412.0301588241293	493.9717061084958	0.0	1396.7064556052444	489.7880986741879	0.0	1394.0338837506338	493.82036493681545	0.0	1392.9378928813344	494.54789952898994	0.0	1394.1164820835538	488.26216621696284	0.0	1403.9249239359194	480.3579815553196	0.0	1404.9998977431712	492.78572123899977	0.0	1394.119437200939	490.19858672835585	0.0	1392.0117105415864	494.04797996728223	0.0	1390.79053715685	493.38320016171247	0.0	1393.2235261951334	489.4000281700269	0.0	1410.511985418099	462.1398840428482	0.0	1413.3550258204898	455.5785249901616	0.0	1414.7936373774405	458.35935692148917	0.0	1408.924968072678	464.35433577117806	0.0	1405.3571717328484	473.4800373551182	0.0	1409.635347739864	479.29041688330983	0.0	1408.9991747917734	464.2270690975473	0.0	1405.306701673333	471.586366251094	0.0	1410.6090708444117	476.68459712045683	0.0
83	2.7666666666666666	1409.9058611759083	481.8879804447088	0.0	1411.0828642711049	483.1449041567691	0.0	1414.791457366712	496.6552660297436	0.0	1399.7274422115092	492.58676430092083	0.0	1397.3062478100146	496.2560919404627	0.0	1396.3631876183222	497.5786318035186	0.0	1394.8406190148232	488.85859419218065	0.0	1409.1576417653826	482.762302535375	0.0	1409.4313253200548	495.41249892538707	0.0	1397.8227682016882	492.89891310547387	0.0	1395.3907680782215	496.4379502766875	0.0	1394.8423517961794	495.69995467289385	0.0	1396.7572411484823	491.9758869021254	0.0	1413.9167153110684	464.3524490789079	0.0	1416.705270936605	456.9149297315947	0.0	1417.9874306920224	460.4497986675222	0.0	1412.283081364363	466.467392379635	0.0	1407.968596495299	475.6856669590706	0.0	1413.7932157149005	480.93924579221687	0.0	1413.1726458291994	466.44612678072633	0.0	1409.915034929259	474.019254658667	0.0	1416.0099460240476	478.6725382664564	0.0
84	2.8	1416.3841066920395	485.687584424664	0.0	1416.4975235868699	486.56440789328644	0.0	1418.7560164545698	500.5432614863118	0.0	1403.894944627095	496.7155279241653	0.0	1401.6596230516152	499.8872306054973	0.0	1401.123910915852	501.0279794622008	0.0	1397.8195765662304	491.46332388836487	0.0	1416.727025054076	486.38619950602083	0.0	1415.6194357454044	499.25158914882877	0.0	1403.0269960569958	496.79901493628415	0.0	1400.1359888800057	500.03443950917733	0.0	1400.40270960431	499.222995254861	0.0	1401.6318140819315	495.7229294824852	0.0	1418.752001694054	467.5659582815128	0.0	1421.5369484401026	458.85014718148625	0.0	1422.5535948041208	463.4551877101424	0.0	1417.1286945405009	469.5274466377403	0.0	1411.761610020426	478.89054020891643	0.0	1419.7287881232605	483.4289487822889	0.0	1419.069813483964	469.6668667259137	0.0	1416.684450299594	477.3859233711561	0.0	1423.7713126295403	481.24688861098883	0.0
85	2.8333333333333335	1420.8607880655695	488.4357457188718	0.0	1420.2832332341923	489.12512817363887	0.0	1421.4775908445945	503.25735974576787	0.0	1406.5298874924686	499.67566096726	0.0	1404.2071340958526	502.68159910887243	0.0	1404.108319478798	502.5337770579357	0.0	1402.0488100708365	495.29034454743186	0.0	1421.8935478888882	489.0710003133668	0.0	1419.6899848952864	501.9677296593956	0.0	1406.4435032697857	499.5132730938281	0.0	1403.2039143523034	502.70377954282435	0.0	1403.8572809573352	501.8730673323123	0.0	1404.7260661182968	498.3329958679558	0.0	1421.992157957281	469.834434700094	0.0	1424.8622479562205	460.2173306772929	0.0	1425.655968516177	465.5240730416631	0.0	1420.4825977587536	471.68531873512484	0.0	1414.3960701477715	481.15682183084226	0.0	1423.762707488793	485.2877204060885	0.0	1422.9563456817295	471.9448864559512	0.0	1421.4927864150627	479.56943631697106	0.0	1429.1124232108882	482.6637089517668	0.0
86	2.8666666666666667	1421.8544628395334	489.2032414318931	0.0	1421.1757321656125	489.92671492473096	0.0	1422.098928747315	504.00973748298304	0.0	1406.9303525605064	500.45909608517525	0.0	1404.451213550892	503.75048341786237	0.0	1404.4493827397127	502.6424786178379	0.0	1404.8833565888579	497.9620989006964	0.0	1422.9083408030285	489.8735362568444	0.0	1420.63537974425	502.7166617046523	0.0	1407.1119000839055	500.22853307894945	0.0	1403.6508901088198	503.55005939117615	0.0	1404.2920959496132	502.6950698054746	0.0	1405.2639393158831	498.95401030513483	0.0	1422.6883724402853	470.4900811888518	0.0	1425.6476573227549	460.6295639305794	0.0	1426.3719244297897	466.0634248762508	0.0	1421.274972785926	472.32711544979674	0.0	1414.9959204891427	481.8191747583425	0.0	1424.700392539086	485.8933578799704	0.0	1423.6837016365548	472.62369554140787	0.0	1422.7855518258793	480.0711226192657	0.0	1430.4347955526794	482.8093816963926	0.0
